<?xml version="1.0" encoding="UTF-8"?>
<svg xmlns="http://www.w3.org/2000/svg" xmlns:se="https://standardebooks.org/vocab/1.0" version="1.1" viewBox="0 0 1400 590" se:generated-from="a81a142644d43a10e81bcec53e7d850ea10aee5d">
	<path d="M 219.91856,66.843806 238.25828,66.843806 238.25828,128.60001 255.84944,128.60001 255.84944,66.843806 274.18916,66.843806 274.18916,51.404756 219.91856,51.404756 219.91856,66.843806 Z"/>
	<path d="M 303.1153,97.628336 328.00492,97.628336 328.00492,128.60001 345.59608,128.60001 345.59608,51.404756 328.00492,51.404756 328.00492,82.189286 303.1153,82.189286 303.1153,51.404756 285.52414,51.404756 285.52414,128.60001 303.1153,128.60001 303.1153,97.628336 Z"/>
	<path d="M 405.9632,51.404756 361.79816,51.404756 361.79816,128.60001 405.9632,128.60001 405.9632,113.16096 379.38932,113.16096 379.38932,97.628336 404.84036,97.628336 404.84036,82.189286 379.38932,82.189286 379.38932,66.843806 405.9632,66.843806 405.9632,51.404756 Z"/>
	<path d="M 442.22714,66.843806 460.56686,66.843806 460.56686,128.60001 478.15802,128.60001 478.15802,66.843806 496.49774,66.843806 496.49774,51.404756 442.22714,51.404756 442.22714,66.843806 Z"/>
	<path d="M 542.4697,51.404756 526.18852,51.404756 495.02971,128.60001 513.93085,128.60001 519.63862,113.16096 549.0196,113.16096 554.72737,128.60001 573.62851,128.60001 542.4697,51.404756 Z M 543.03112,97.721906 525.6271,97.721906 534.23554,75.265106 534.42268,75.265106 543.03112,97.721906 Z"/>
	<path d="M 578.08609,89.955596 C 578.08609,112.50597 594.18013,130.00356 617.01121,130.00356 639.1873,130.00356 655.84275,112.50597 655.84275,89.955596 655.84275,67.405226 638.43874,50.001206 617.01121,50.001206 595.77082,50.001206 578.08609,67.405226 578.08609,89.955596 Z M 597.0808,89.955596 C 597.0808,78.446486 603.44356,66.937376 617.01121,66.937376 630.67243,66.937376 636.84805,78.446486 636.84805,89.955596 636.84805,101.46471 631.04671,112.97382 617.01121,112.97382 602.60143,112.97382 597.0808,101.46471 597.0808,89.955596 Z"/>
	<path d="M 689.75575,66.843806 708.09547,66.843806 708.09547,128.60001 725.68663,128.60001 725.68663,66.843806 744.02635,66.843806 744.02635,51.404756 689.75575,51.404756 689.75575,66.843806 Z"/>
	<path d="M 799.52639,51.404756 755.36135,51.404756 755.36135,128.60001 799.52639,128.60001 799.52639,113.16096 772.95251,113.16096 772.95251,97.628336 798.40355,97.628336 798.40355,82.189286 772.95251,82.189286 772.95251,66.843806 799.52639,66.843806 799.52639,51.404756 Z"/>
	<path d="M 883.37797,112.69311 C 865.69324,112.69311 857.92693,100.34187 857.92693,89.955596 857.92693,79.662896 865.69324,67.311656 883.37797,67.311656 892.36069,67.311656 898.53631,72.083726 898.53631,72.083726 L 906.02191,57.112526 C 906.02191,57.112526 897.41347,50.001206 880.66444,50.001206 858.76906,50.001206 838.83865,67.966646 838.83865,90.142736 838.83865,112.22526 858.86263,130.00356 880.66444,130.00356 897.41347,130.00356 906.02191,122.89224 906.02191,122.89224 L 898.53631,107.92104 C 898.53631,107.92104 892.36069,112.69311 883.37797,112.69311 Z"/>
	<path d="M 935.43487,97.628336 960.32449,97.628336 960.32449,128.60001 977.91565,128.60001 977.91565,51.404756 960.32449,51.404756 960.32449,82.189286 935.43487,82.189286 935.43487,51.404756 917.84371,51.404756 917.84371,128.60001 935.43487,128.60001 935.43487,97.628336 Z"/>
	<path d="M 1011.7089,51.404756 994.11776,51.404756 994.11776,128.60001 1011.7089,128.60001 1011.7089,51.404756 Z"/>
	<path d="M 1045.584,80.692166 1045.7712,80.692166 1076.4621,128.60001 1094.0533,128.60001 1094.0533,51.404756 1076.4621,51.404756 1076.4621,99.312596 1076.275,99.312596 1045.584,51.404756 1027.9929,51.404756 1027.9929,128.60001 1045.584,128.60001 1045.584,80.692166 Z"/>
	<path d="M 1180.101,85.370666 1144.4508,85.370666 1144.4508,98.938316 1162.2291,98.938316 C 1162.2291,108.38889 1153.9014,113.81595 1145.4801,113.81595 1134.6259,113.81595 1125.8304,103.14897 1125.8304,90.049166 1125.8304,76.668656 1134.6259,65.908106 1145.4801,65.908106 1152.3107,65.908106 1158.2056,68.621636 1162.6969,75.826526 L 1174.2061,63.194576 C 1167.469,55.053986 1158.0184,50.001206 1144.4508,50.001206 1122.7426,50.001206 1106.8357,67.873076 1106.8357,90.049166 1106.8357,112.13169 1123.6783,130.00356 1144.4508,130.00356 1159.6091,130.00356 1175.8903,121.67583 1180.101,102.1197 L 1180.101,85.370666 Z"/>
	<path d="M 590.99467,231.05151 577.80083,231.05151 577.80083,288.95001 610.92579,288.95001 610.92579,277.37031 590.99467,277.37031 590.99467,231.05151 Z"/>
	<path d="M 652.91613,231.05151 640.70481,231.05151 617.33487,288.95001 631.51123,288.95001 635.79221,277.37031 657.82873,277.37031 662.10971,288.95001 676.28607,288.95001 652.91613,231.05151 Z M 653.33721,265.79061 640.28373,265.79061 646.74029,248.94741 646.88065,248.94741 653.33721,265.79061 Z"/>
	<path d="M 680.87925,259.96567 C 680.87925,276.87905 692.95021,290.00271 710.07413,290.00271 726.70679,290.00271 739.19883,276.87905 739.19883,259.96567 739.19883,243.05229 726.14535,229.99881 710.07413,229.99881 694.14327,229.99881 680.87925,243.05229 680.87925,259.96567 Z M 695.12579,259.96567 C 695.12579,251.33353 699.89803,242.70139 710.07413,242.70139 720.32041,242.70139 724.95229,251.33353 724.95229,259.96567 724.95229,268.59781 720.60113,277.22995 710.07413,277.22995 699.26641,277.22995 695.12579,268.59781 695.12579,259.96567 Z"/>
	<path d="M 798.65522,231.05151 751.003,231.05151 751.003,242.63121 775.566,242.63121 746.93256,288.95001 796.76036,288.95001 796.76036,277.37031 769.9516,277.37031 798.65522,231.05151 Z"/>
	<path d="M 822.22002,231.05151 809.02618,231.05151 809.02618,288.95001 822.22002,288.95001 822.22002,231.05151 Z"/>
	<path d="M 530.2925,500.70319 521.49711,500.70319 521.49711,526.15368 C 521.49711,530.03676 519.57896,531.58063 517.05263,531.58063 514.80699,531.58063 512.04674,528.96072 512.04674,528.96072 L 509.2397,536.30581 C 509.2397,536.30581 512.7485,540.00175 518.26901,540.00175 525.98837,540.00175 530.2925,535.97832 530.2925,528.39932 L 530.2925,500.70319 Z"/>
	<path d="M 560.02954,500.70319 551.88912,500.70319 536.31005,539.29999 545.76042,539.29999 548.61424,531.58063 563.30442,531.58063 566.15824,539.29999 575.60861,539.29999 560.02954,500.70319 Z M 560.31024,523.86127 551.60842,523.86127 555.91255,512.63311 556.00611,512.63311 560.31024,523.86127 Z"/>
	<path d="M 613.97511,539.29999 622.7705,539.29999 619.30849,500.70319 609.95169,500.70319 601.39022,522.97237 592.82874,500.70319 583.47194,500.70319 580.00993,539.29999 588.80532,539.29999 590.6299,516.42261 590.86382,516.42261 598.77031,539.06607 604.01012,539.06607 611.91662,516.42261 612.15054,516.42261 613.97511,539.29999 Z"/>
	<path d="M 653.37597,500.70319 631.29392,500.70319 631.29392,539.29999 653.37597,539.29999 653.37597,531.58063 640.08931,531.58063 640.08931,523.81448 652.81456,523.81448 652.81456,516.09512 640.08931,516.09512 640.08931,508.42255 653.37597,508.42255 653.37597,500.70319 Z"/>
	<path d="M 677.65464,500.00143 C 671.43236,500.00143 665.06974,504.58626 665.06974,511.791 665.06974,515.81442 667.78321,519.41679 672.41483,521.7092 676.99966,524.00162 681.11665,525.26479 681.11665,528.07183 681.11665,531.6742 677.4675,531.86133 675.54936,531.86133 671.24523,531.86133 666.09899,527.51042 666.09899,527.51042 L 661.70129,534.90229 C 661.70129,534.90229 667.17502,540.00175 676.20433,540.00175 683.73656,540.00175 690.75416,536.77365 690.75416,527.5572 690.75416,522.50453 686.02897,518.85538 681.72484,517.0308 677.32715,515.15944 673.678,513.61557 673.678,511.46351 673.678,509.35823 675.26865,508.00149 678.26283,508.00149 682.23947,508.00149 686.07576,510.66818 686.07576,510.66818 L 689.63134,503.65058 C 689.63134,503.65058 684.67224,500.00143 677.65464,500.00143 Z"/>
	<path d="M 726.45319,500.70319 717.65779,500.70319 717.65779,539.29999 739.73984,539.29999 739.73984,531.58063 726.45319,531.58063 726.45319,500.70319 Z"/>
	<path d="M 771.14722,500.70319 749.06517,500.70319 749.06517,539.29999 771.14722,539.29999 771.14722,531.58063 757.86057,531.58063 757.86057,523.81448 770.58581,523.81448 770.58581,516.09512 757.86057,516.09512 757.86057,508.42255 771.14722,508.42255 771.14722,500.70319 Z"/>
	<path d="M 816.10442,517.68578 798.27972,517.68578 798.27972,524.46946 807.16868,524.46946 C 807.16868,529.19464 803.0049,531.90812 798.79434,531.90812 793.3674,531.90812 788.9697,526.57474 788.9697,520.02498 788.9697,513.33487 793.3674,507.95471 798.79434,507.95471 802.20957,507.95471 805.15696,509.31144 807.4026,512.91381 L 813.15703,506.59797 C 809.78858,502.52776 805.0634,500.00143 798.27972,500.00143 787.42583,500.00143 779.47255,508.93717 779.47255,520.02498 779.47255,531.066 787.89367,540.00175 798.27972,540.00175 805.85872,540.00175 813.99914,535.83797 816.10442,526.06012 L 816.10442,517.68578 Z"/>
	<path d="M 859.8474,517.68578 842.0227,517.68578 842.0227,524.46946 850.91166,524.46946 C 850.91166,529.19464 846.74788,531.90812 842.53732,531.90812 837.11038,531.90812 832.71268,526.57474 832.71268,520.02498 832.71268,513.33487 837.11038,507.95471 842.53732,507.95471 845.95255,507.95471 848.89994,509.31144 851.14558,512.91381 L 856.90001,506.59797 C 853.53156,502.52776 848.80638,500.00143 842.0227,500.00143 831.16881,500.00143 823.21553,508.93717 823.21553,520.02498 823.21553,531.066 831.63665,540.00175 842.0227,540.00175 849.6017,540.00175 857.74212,535.83797 859.8474,526.06012 L 859.8474,517.68578 Z"/>
	<path d="M 890.7716,500.70319 868.68955,500.70319 868.68955,539.29999 890.7716,539.29999 890.7716,531.58063 877.48494,531.58063 877.48494,523.81448 890.21019,523.81448 890.21019,516.09512 877.48494,516.09512 877.48494,508.42255 890.7716,508.42255 890.7716,500.70319 Z"/>
	<path d="M 594.74274,455.60187 C 594.74274,456.7921 597.25071,455.85692 597.25071,456.74959 597.25071,457.8973 595.46538,464.7836 595.46538,468.69434 595.46538,472.00996 597.03817,472.69009 598.18589,472.69009 600.82139,472.69009 604.43457,469.79954 604.43457,468.69434 604.43457,468.09922 604.0945,468.09922 603.96698,468.09922 603.28685,468.09922 602.30917,469.96958 599.97123,469.96958 599.80119,469.96958 598.2284,469.88456 598.2284,467.63164 598.2284,466.95151 599.20608,461.42547 599.58865,458.78997 599.8437,457.04714 599.71618,456.282 600.94891,456.282 601.88409,456.282 603.71193,456.49454 604.39206,456.49454 605.1572,456.49454 605.41225,456.23949 605.41225,455.26181 605.41225,454.75171 605.19971,454.45416 604.30704,454.45416 603.83945,454.45416 603.49939,454.49666 601.84158,454.49666 600.43881,454.49666 600.3538,454.45416 600.3538,454.19911 600.3538,453.56149 601.11894,451.56361 601.11894,451.01101 601.11894,450.62844 600.9064,450.50091 600.69386,450.50091 600.01373,450.50091 599.92872,451.05352 598.2284,452.83885 596.35805,454.79422 594.74274,454.75171 594.74274,455.60187 Z"/>
	<path d="M 606.85022,459.59762 C 606.85022,460.19274 607.19028,460.32026 607.36031,460.32026 607.57285,460.32026 607.70038,460.19274 607.8279,460.06521 608.08295,459.76766 608.42301,457.21718 610.16584,457.21718 610.93098,457.21718 611.61111,457.98232 611.61111,460.10772 611.61111,463.29582 609.78327,469.5445 609.78327,471.24482 609.78327,472.26501 610.63343,472.35002 611.05851,472.35002 L 611.27105,472.35002 C 612.80134,472.35002 612.71632,472.35002 613.6515,465.12366 L 613.86404,463.7209 C 614.07658,461.93556 615.13928,456.36702 617.05214,456.36702 618.58242,456.36702 618.41239,458.15235 619.34757,458.15235 620.11271,458.15235 620.19773,456.8346 620.28274,456.53705 620.41027,456.06946 620.75033,455.51686 620.75033,454.96425 620.75033,454.36914 620.28274,453.6465 619.17754,453.6465 616.03194,453.6465 613.90654,458.02483 613.60899,458.02483 613.52397,458.02483 613.48146,457.98232 612.41876,455.2193 612.16372,454.53917 611.73864,453.73152 610.84597,453.73152 610.4634,453.73152 606.85022,454.75171 606.85022,459.59762 Z"/>
	<path d="M 620.44148,467.33408 C 620.44148,470.0971 620.95158,472.81761 624.98984,472.81761 629.0281,472.81761 632.55626,467.71665 632.7688,467.71665 633.06636,467.71665 632.68379,472.47755 635.4043,472.47755 636.55202,472.47755 638.46488,470.52218 639.52758,468.99189 640.08018,468.22675 640.29272,467.58913 640.29272,467.16405 640.29272,466.99402 640.25021,466.69646 639.91015,466.69646 639.1025,466.69646 638.20983,469.45948 636.80706,469.45948 635.99941,469.45948 635.36179,468.05672 635.36179,466.95151 635.36179,465.3362 635.78687,463.38084 636.12694,461.51048 636.467,459.59762 636.72205,457.64226 637.10462,456.06946 637.40218,454.83673 637.95478,453.81654 637.95478,453.13641 637.95478,452.66882 637.74224,452.49879 637.48719,452.49879 636.63703,452.49879 636.12694,454.58168 635.27678,454.58168 633.87401,454.58168 632.98134,454.11409 631.6636,454.11409 630.55839,454.11409 629.70823,454.32663 628.56051,454.87924 626.30759,455.94194 624.35222,457.98232 622.82193,460.40528 621.50418,462.53068 620.44148,464.95363 620.44148,467.33408 Z M 623.41704,467.07903 C 623.41704,466.31389 623.50206,465.54874 623.62958,464.7836 624.01216,462.57318 625.03235,460.66032 626.26508,458.61994 627.54032,456.45203 629.79324,455.17679 631.53607,455.17679 632.42874,455.17679 634.3416,455.47435 634.3416,456.66457 634.3416,456.7921 633.19388,464.61357 632.17369,466.65395 631.79112,467.4191 629.79324,470.47967 626.73267,470.47967 624.94733,470.47967 623.41704,469.20443 623.41704,467.07903 Z"/>
	<path d="M 641.68751,458.53492 C 641.68751,459.00251 641.77253,459.34258 642.07008,459.34258 643.00526,459.34258 643.47285,456.96213 644.7906,456.96213 645.21568,456.96213 645.76828,457.81229 645.76828,459.30007 645.76828,462.57318 643.89793,469.16192 643.89793,470.94726 643.89793,472.17999 644.23799,472.26501 645.38571,472.26501 646.49092,472.26501 646.83098,472.09498 646.9585,471.1598 647.04352,470.56469 646.74596,471.07478 647.80866,465.3362 648.82886,459.85267 648.31876,460.23524 650.1466,457.64226 651.12429,456.23949 651.93194,455.7719 652.90962,455.7719 655.67264,455.7719 655.88518,458.57743 655.88518,459.25756 655.88518,460.83036 654.99252,466.52643 654.99252,469.75704 654.99252,471.24482 655.71515,472.43504 656.56531,472.43504 658.43566,472.43504 662.17637,469.45948 662.17637,467.80167 662.17637,467.54662 662.09135,467.29157 661.7938,467.29157 661.15618,467.29157 660.98614,467.80167 660.47605,468.43929 660.47605,468.43929 659.49836,469.37446 658.77573,469.37446 658.30814,469.37446 657.96808,469.0344 657.96808,467.84418 657.96808,466.3989 658.69071,461.89306 658.69071,458.9175 658.69071,456.23949 658.0956,453.604 655.12004,453.604 653.3347,453.604 651.08178,455.13428 649.93406,456.02695 648.36127,457.21718 648.06371,458.15235 647.80866,458.15235 647.42609,458.15235 648.31876,453.68901 645.8533,453.68901 644.23799,453.68901 641.68751,456.87711 641.68751,458.53492 Z"/>
	<path d="M 663.63825,469.88456 C 663.63825,472.13748 666.69882,472.69009 668.35663,472.69009 673.79766,472.69009 674.98788,468.65183 674.98788,467.12154 674.98788,464.2735 673.37258,463.08328 672.05483,461.5955 671.03464,460.49029 668.6967,458.74746 668.6967,457.13216 668.6967,455.85692 669.33432,454.87924 670.94962,454.87924 672.60743,454.87924 672.77747,457.25968 674.30775,457.25968 674.52029,457.25968 675.92306,457.13216 675.92306,455.81441 675.92306,454.1566 674.26525,453.604 671.96981,453.604 668.65419,453.604 666.18873,455.55936 666.18873,458.4074 666.18873,460.95788 667.80403,462.06309 669.50435,463.80592 671.03464,465.3362 672.4374,466.56894 672.4374,468.56681 672.4374,469.07691 672.13985,471.28732 669.03676,471.28732 666.44377,471.28732 667.16641,468.35427 664.9985,468.35427 664.48841,468.35427 663.63825,468.56681 663.63825,469.88456 Z"/>
	<path d="M 678.73788,468.5243 C 678.73788,472.52006 679.97062,472.52006 680.82078,472.52006 681.62843,472.52006 683.41376,471.6699 684.51897,470.39466 685.53916,469.20443 686.64437,467.75916 686.64437,467.33408 686.64437,466.909 686.43183,466.65395 686.13428,466.65395 685.02907,466.65395 684.60399,469.67202 682.26605,469.67202 681.71344,469.67202 681.58592,469.45948 681.58592,468.01421 681.58592,466.56894 682.09602,463.89093 682.81865,458.87499 684.17891,449.73577 683.45627,451.30856 685.02907,443.06201 685.15659,442.25436 685.45415,441.70176 685.45415,441.10665 685.45415,440.68157 685.24161,440.42652 684.56148,440.42652 683.45627,440.42652 682.5211,440.8516 679.41801,441.06414 678.86541,441.10665 678.78039,441.44671 678.78039,441.65925 678.78039,442.12684 679.16296,442.25436 680.01312,442.25436 680.52322,442.25436 680.60824,442.21185 681.24586,442.21185 681.88348,442.21185 682.30856,442.55192 682.30856,443.06201 682.30856,443.57211 681.67094,447.39783 680.9483,451.98869 680.52322,454.7092 680.31068,457.72727 679.92811,460.40528 679.84309,461.0854 678.73788,466.10135 678.73788,468.5243 Z"/>
	<path d="M 689.26791,467.33408 C 689.26791,470.0971 689.77801,472.81761 693.81627,472.81761 697.85453,472.81761 701.38269,467.71665 701.59523,467.71665 701.89279,467.71665 701.51021,472.47755 704.23073,472.47755 705.37844,472.47755 707.2913,470.52218 708.354,468.99189 708.90661,468.22675 709.11915,467.58913 709.11915,467.16405 709.11915,466.99402 709.07664,466.69646 708.73657,466.69646 707.92892,466.69646 707.03625,469.45948 705.63349,469.45948 704.82584,469.45948 704.18822,468.05672 704.18822,466.95151 704.18822,465.3362 704.6133,463.38084 704.95336,461.51048 705.29343,459.59762 705.54847,457.64226 705.93105,456.06946 706.2286,454.83673 706.78121,453.81654 706.78121,453.13641 706.78121,452.66882 706.56867,452.49879 706.31362,452.49879 705.46346,452.49879 704.95336,454.58168 704.1032,454.58168 702.70044,454.58168 701.80777,454.11409 700.49002,454.11409 699.38481,454.11409 698.53465,454.32663 697.38694,454.87924 695.13401,455.94194 693.17865,457.98232 691.64836,460.40528 690.33061,462.53068 689.26791,464.95363 689.26791,467.33408 Z M 692.24347,467.07903 C 692.24347,466.31389 692.32849,465.54874 692.45601,464.7836 692.83858,462.57318 693.85877,460.66032 695.09151,458.61994 696.36675,456.45203 698.61967,455.17679 700.3625,455.17679 701.25517,455.17679 703.16803,455.47435 703.16803,456.66457 703.16803,456.7921 702.02031,464.61357 701.00012,466.65395 700.61755,467.4191 698.61967,470.47967 695.55909,470.47967 693.77376,470.47967 692.24347,469.20443 692.24347,467.07903 Z"/>
	<path d="M 711.1416,455.60187 C 711.1416,456.7921 713.64957,455.85692 713.64957,456.74959 713.64957,457.8973 711.86423,464.7836 711.86423,468.69434 711.86423,472.00996 713.43703,472.69009 714.58475,472.69009 717.22024,472.69009 720.83342,469.79954 720.83342,468.69434 720.83342,468.09922 720.49336,468.09922 720.36583,468.09922 719.68571,468.09922 718.70802,469.96958 716.37008,469.96958 716.20005,469.96958 714.62725,469.88456 714.62725,467.63164 714.62725,466.95151 715.60494,461.42547 715.98751,458.78997 716.24256,457.04714 716.11503,456.282 717.34777,456.282 718.28294,456.282 720.11079,456.49454 720.79091,456.49454 721.55606,456.49454 721.81111,456.23949 721.81111,455.26181 721.81111,454.75171 721.59857,454.45416 720.7059,454.45416 720.23831,454.45416 719.89825,454.49666 718.24043,454.49666 716.83767,454.49666 716.75265,454.45416 716.75265,454.19911 716.75265,453.56149 717.5178,451.56361 717.5178,451.01101 717.5178,450.62844 717.30526,450.50091 717.09272,450.50091 716.41259,450.50091 716.32757,451.05352 714.62725,452.83885 712.7569,454.79422 711.1416,454.75171 711.1416,455.60187 Z"/>
	<path d="M 723.39054,465.93132 C 723.39054,469.71453 724.70829,472.69009 730.10681,472.69009 733.805,472.69009 737.5032,469.71453 737.5032,468.73684 737.5032,468.4818 737.33317,468.31176 736.9931,468.31176 736.52552,468.31176 734.8252,470.13961 732.40224,470.13961 728.19395,470.13961 726.28109,468.01421 726.28109,464.82611 726.28109,463.7209 726.40861,463.08328 727.00372,463.08328 730.99948,463.04077 733.29491,462.1056 733.67748,461.93556 734.48513,461.5955 737.80076,459.85267 737.80076,456.7921 737.80076,454.92174 736.10044,453.6465 734.10256,453.6465 731.72211,453.6465 729.76674,454.41165 728.19395,455.89943 725.2609,458.61994 723.39054,462.27563 723.39054,465.93132 Z M 726.8762,461.51048 C 726.8762,460.95788 727.85388,458.23737 729.12912,456.91962 730.23433,455.7719 731.55208,454.92174 732.61478,454.92174 733.33742,454.92174 734.8677,455.30432 734.8677,456.91962 734.8677,459.59762 731.38205,462.36064 727.25877,462.36064 726.96122,462.36064 726.8762,461.80804 726.8762,461.51048 Z"/>
	<path d="M 739.85575,466.86649 C 739.85575,470.05459 741.34353,472.52006 744.95671,472.52006 749.16501,472.52006 751.33291,467.75916 751.71549,467.75916 752.3106,467.75916 751.33291,472.52006 754.30847,472.52006 757.07149,472.52006 759.7495,468.22675 759.7495,467.33408 759.7495,467.16405 759.62197,466.95151 759.28191,466.95151 758.60178,466.95151 757.6241,469.587 755.75375,469.587 754.77606,469.587 754.64854,468.69434 754.64854,467.75916 754.64854,466.48392 755.07362,463.80592 755.54121,460.57531 757.92165,443.18954 758.34673,441.82928 758.34673,440.72407 758.34673,440.3415 758.04918,440.00144 757.66661,440.00144 756.51889,440.00144 756.77394,440.08645 754.39349,440.68157 753.20327,440.97912 751.71549,440.80909 751.71549,441.53173 751.71549,441.82928 751.97053,441.99931 752.39561,441.99931 752.43812,441.99931 753.41581,441.95681 753.88339,441.95681 754.52101,441.95681 755.11613,442.38189 755.11613,443.01951 755.11613,443.31706 753.71336,454.49666 753.58584,454.49666 752.39561,454.49666 751.54545,453.94406 750.44025,453.94406 745.38179,453.94406 739.85575,460.27775 739.85575,466.86649 Z M 742.83131,465.67627 C 742.83131,461.21293 746.31697,454.83673 750.22771,454.83673 751.37542,454.83673 753.07574,455.38933 753.07574,456.53705 753.07574,458.23737 752.43812,465.71878 750.7378,467.84418 749.63259,469.24694 747.97478,470.05459 746.44449,470.05459 743.85151,470.05459 742.83131,468.14173 742.83131,465.67627 Z"/>
	<path d="M 771.05796,469.16192 C 771.05796,471.62739 773.73596,472.7326 776.24393,472.7326 782.83267,472.7326 787.84862,465.12366 787.84862,459.34258 787.84862,456.57956 786.36084,453.94406 783.17274,453.94406 778.28432,453.94406 776.28644,457.8973 775.69133,457.8973 775.60631,457.8973 775.47879,457.55724 775.47879,457.25968 775.47879,454.19911 778.1993,441.53173 778.1993,440.76658 778.1993,440.29899 777.85924,440.00144 777.39165,440.00144 777.1366,440.00144 776.37146,440.25649 774.71365,440.46903 772.75828,440.72407 771.56805,440.68157 771.56805,441.53173 771.56805,442.12684 771.90812,442.12684 772.37571,442.12684 773.01333,442.12684 773.48091,442.04182 774.11853,442.04182 774.96869,442.04182 775.18123,442.33938 775.18123,442.55192 775.18123,443.57211 774.92619,445.05989 774.54361,446.88773 773.90599,450.03332 773.3959,454.1566 772.63075,458.57743 772.03564,462.02058 771.05796,466.44141 771.05796,469.16192 Z M 773.86349,468.65183 C 773.86349,468.22675 774.33107,463.67839 775.56381,460.32026 776.92406,456.62206 779.68708,456.19698 780.70727,456.19698 783.04521,456.19698 784.87306,458.15235 784.87306,460.5328 784.87306,465.42122 780.96232,471.54237 777.1366,471.54237 774.50111,471.54237 773.86349,470.0971 773.86349,468.65183 Z"/>
	<path d="M 789.4938,477.49349 C 789.4938,479.44886 791.19412,480.00146 793.02196,480.00146 797.01772,480.00146 799.73823,475.15555 801.7361,470.0971 804.24408,463.76341 805.26427,457.8973 805.26427,455.98444 805.26427,454.6667 804.54163,453.73152 803.60646,453.73152 802.58626,453.73152 802.16118,454.53917 802.16118,455.30432 802.16118,456.45203 803.22388,457.30219 803.22388,458.53492 803.22388,461.38296 802.28871,465.93132 801.6936,465.93132 801.22601,465.93132 797.18775,453.85904 793.06447,453.85904 790.47148,453.85904 789.62132,457.55724 789.62132,459.34258 789.62132,460.06521 789.79136,460.27775 790.0464,460.27775 791.32164,460.27775 790.42898,457.08965 792.89444,457.08965 795.14736,457.08965 799.82324,468.05672 799.82324,470.43716 799.82324,472.05247 797.01772,477.49349 794.55225,477.49349 792.59688,477.49349 792.55438,476.09073 790.85406,476.09073 790.13142,476.09073 789.4938,476.77086 789.4938,477.49349 Z"/>
</svg>
